<svg width="1280" height="640" viewBox="0 0 1280 640" fill="none" xmlns="http://www.w3.org/2000/svg">
  <rect width="1280" height="640" fill="#F5F7FB"/>
  <rect x="52" y="52" width="1176" height="536" fill="#FFFFFF" stroke="#D7DEE8"/>
  <rect x="52" y="52" width="1176" height="72" fill="#0F2747"/>
  <text x="84" y="97" fill="#FFFFFF" font-family="Inter, Arial, sans-serif" font-size="28" font-weight="700">ScreenFlow AI</text>
  <text x="1038" y="94" fill="#8FB4E8" font-family="Inter, Arial, sans-serif" font-size="16" font-weight="600">AI VIDEO WORKSPACE</text>
  <text x="84" y="190" fill="#143A6F" font-family="Inter, Arial, sans-serif" font-size="20" font-weight="700" letter-spacing="3">CONSULTING-GRADE WORKFLOW</text>
  <text x="84" y="282" fill="#0F2747" font-family="Inter, Arial, sans-serif" font-size="66" font-weight="800">Turn video knowledge</text>
  <text x="84" y="360" fill="#40648F" font-family="Inter, Arial, sans-serif" font-size="66" font-weight="800">into reusable assets</text>
  <text x="84" y="420" fill="#53677F" font-family="Inter, Arial, sans-serif" font-size="24">AI recording · live subtitles · meeting summaries · whiteboard · publishing</text>
  <rect x="84" y="470" width="178" height="48" fill="#163A70"/>
  <text x="112" y="501" fill="#FFFFFF" font-family="Inter, Arial, sans-serif" font-size="18" font-weight="700">Start recording</text>
  <rect x="282" y="470" width="176" height="48" fill="#FFFFFF" stroke="#C9D3DF"/>
  <text x="314" y="501" fill="#143A6F" font-family="Inter, Arial, sans-serif" font-size="18" font-weight="700">View Pro plan</text>
  <g transform="translate(804 178)">
    <rect width="344" height="342" fill="#F8FAFC" stroke="#D7DEE8"/>
    <rect x="26" y="28" width="292" height="56" fill="#FFFFFF" stroke="#D7DEE8"/>
    <circle cx="54" cy="56" r="10" fill="#00B894"/>
    <rect x="76" y="47" width="158" height="10" fill="#ADC1D8"/>
    <rect x="76" y="64" width="108" height="8" fill="#D4DEE9"/>
    <rect x="26" y="108" width="292" height="56" fill="#FFFFFF" stroke="#D7DEE8"/>
    <circle cx="54" cy="136" r="10" fill="#4C6FFF"/>
    <rect x="76" y="127" width="188" height="10" fill="#ADC1D8"/>
    <rect x="76" y="144" width="132" height="8" fill="#D4DEE9"/>
    <rect x="26" y="188" width="292" height="116" fill="#0F2747"/>
    <polyline points="58,262 112,232 168,250 222,210 282,238" stroke="#8FB4E8" stroke-width="6" fill="none"/>
    <circle cx="112" cy="232" r="8" fill="#FFFFFF"/>
    <circle cx="222" cy="210" r="8" fill="#FFFFFF"/>
    <text x="44" y="224" fill="#FFFFFF" font-family="Inter, Arial, sans-serif" font-size="16" font-weight="700">Real-time analysis</text>
  </g>
</svg>
